<svg width="100%" height="100%" viewBox="0 0 56 62" fill="none" xmlns="http://www.w3.org/2000/svg" preserveAspectRatio="xMidYMid meet">
<path d="M1 42.4625L4.82474 2.15L8.37629 0.80625L13.567 0H45.5309L50.4485 2.15L54 43L47.9897 41.6562H4.82474L1.54639 43L1 42.4625Z" fill="#FFE65B"/>
<path d="M1.34769 42.8605L1.07812 51.217L6.73899 52.8344H11.8607H34.7738H46.9042L53.9129 51.217V43.1301L47.9825 41.5127H39.3564H15.3651H5.1216L1.34769 42.8605Z" fill="#C7A700"/>
<path d="M6.19971 32.3478V15.9043H49.0606V32.3478H45.5562V27.226L44.7475 26.1478L43.3997 25.0695H42.0519L42.8606 23.7217V20.2173L42.0519 19.4086L40.9736 18.5999H35.0432L34.2345 19.4086L33.6954 20.2173V23.7217L34.2345 24.2608L35.0432 25.0695H32.8867L31.5388 26.6869L30.9997 28.3043V32.3478H24.7997V27.226L24.2606 26.1478L22.9128 25.0695H21.0258L22.1041 23.7217V20.2173L21.0258 19.4086L19.4084 18.5999H15.6345L14.0171 19.4086L12.9388 20.7565V24.2608L14.0171 25.0695H11.8606L10.7823 26.1478L10.2432 27.7652V32.3478H6.19971Z" fill="#C7A700"/>
<path d="M7.81738 9.16501V14.8259H18.8696V9.16501L18.0609 7.27806H16.4435V6.73893L16.9826 5.93023V2.96501L16.1739 1.61719H11.0522L9.9739 2.96501V5.93023L10.513 7.27806H9.16521L7.81738 9.16501Z" fill="#C7A700"/>
<path d="M36.1216 9.16501V14.8259H47.1738V9.16501L46.3651 7.27806H44.7477V6.73893L45.2868 5.93023V2.96501L44.4781 1.61719H39.3564L38.2781 2.96501V5.93023L38.8172 7.27806H37.4694L36.1216 9.16501Z" fill="#C7A700"/>
<path d="M22.104 8.89548V14.5564H33.1562V8.89548L32.3475 7.00853H30.7301V6.4694L31.2692 5.6607V2.69548L30.4605 1.34766H25.3388L24.2605 2.69548V5.6607L24.7997 7.00853H23.4518L22.104 8.89548Z" fill="#C7A700"/>
<path d="M49.0606 33.1562H6.19971V35.3128L7.27797 36.1215H48.5214L49.0606 34.7736V33.1562Z" fill="#C7A700"/>
<path d="M7.27844 49.0612H3.23497L2.42627 47.9829V45.0177L3.23497 44.209H5.39149L6.73931 45.0177L8.08714 47.9829L7.27844 49.0612Z" fill="white"/>
<path d="M48.2523 49.3307H52.2958L53.1045 48.2524V45.2872L52.2958 44.4785H50.1393L48.7914 45.2872L47.4436 48.2524L48.2523 49.3307Z" fill="white"/>
<path d="M36 48.7778L34.9375 51H20.5938L19 48.7778V47.1111L20.5938 46H34.1406L36 47.1111V48.7778Z" fill="#BCBCBC"/>
<path d="M21 48H34" stroke="#767676"/>
<path d="M22 50H34" stroke="#767676"/>
<path d="M2.15674 60.6519V56.0693L9.16543 56.878V60.6519L8.08717 61.9998H3.77413L2.15674 60.6519Z" fill="#3A3A3A"/>
<path d="M46.3652 60.3824V56.8781L53.3739 55.5303V60.3824L52.0261 61.7303H47.4435L46.3652 60.3824Z" fill="#3A3A3A"/>
<path d="M7.03382 52.8261L0.811594 51L0 52.8261V54.913L5.1401 56.4783L14.6087 57H43.0145L49.7778 56.4783L56 54.913V52.8261L54.6473 51L46.8019 52.8261H25.43H7.03382Z" fill="#B7B7B7"/>
<path d="M8.08715 7.00815L7.27846 7.81685L6.37991 9.16467L6.2002 6.19946L7.54802 4.58207L8.89585 4.3125V6.19946L9.16541 7.00815H8.08715Z" fill="#848484"/>
<path d="M47.4436 7.00815L48.2523 7.81685L49.1509 9.16467L49.3306 6.19946L47.9827 4.58207L46.6349 4.3125V6.19946L46.3653 7.00815H47.4436Z" fill="#848484"/>
<path d="M21.2958 7.81692L20.4871 8.89518L19.6784 7.81692L18.8697 7.27779L18.061 6.46909V3.77344H23.4523V6.46909L22.9132 7.27779H22.1045L21.2958 7.81692Z" fill="#848484"/>
<path d="M35.5829 7.81692L34.7742 8.89518L33.9655 7.81692L33.1568 7.27779L32.3481 6.46909V3.77344H37.7394V6.46909L37.2003 7.27779H36.3916L35.5829 7.81692Z" fill="#848484"/>
<path d="M10.2437 32.3473H6.2002V27.7646H10.2437V32.3473Z" fill="#848484"/>
<path d="M24.8002 27.7646V32.3473H31.0002V27.7646H24.8002Z" fill="#848484"/>
<path d="M45.5567 27.7646V32.3473H49.0611V27.7646H45.5567Z" fill="#848484"/>
</svg>
